Coordinates
version=1
nRows=17
nColumns=24
inDegrees=yes

Units are S.I. units (second, meters, Newtons, ...)
Angles are in degrees.

endheader
time	pelvis_tilt	pelvis_list	pelvis_rotation	pelvis_tx	pelvis_ty	pelvis_tz	hip_flexion_r	hip_adduction_r	hip_rotation_r	knee_angle_r	ankle_angle_r	subtalar_angle_r	mtp_angle_r	hip_flexion_l	hip_adduction_l	hip_rotation_l	knee_angle_l	ankle_angle_l	subtalar_angle_l	mtp_angle_l	lumbar_extension	lumbar_bending	lumbar_rotation
      1.41633333	     -2.07110601	     -4.73984818	    -11.56613524	      0.94671937	      0.98802717	      0.29621212	    -13.25858085	      8.48302843	     12.23775334	    -16.49609653	     17.82700562	      2.26364528	      9.61137335	     32.05065766	     -8.48100370	    -11.23671733	     -0.73405660	     10.52601995	     -1.81015238	      3.61088469	      1.80099874	      3.53528363	     10.84509229
      1.42050000	     -2.10513777	     -4.60538033	    -11.68249081	      0.95249663	      0.98735650	      0.29606215	    -13.45134490	      8.25230139	     12.28881991	    -16.66096323	     17.70361956	      2.26009709	      9.62813808	     31.99067545	     -8.37462896	    -10.83762994	     -1.24146666	     10.79818453	     -2.35931810	      3.62037703	      1.94590917	      3.37512197	     10.97274846
      1.42466667	     -2.15830620	     -4.47929400	    -11.83369022	      0.95828034	      0.98667097	      0.29593221	    -13.60118735	      8.02590646	     12.35352460	    -16.87772072	     17.53651529	      2.27020044	      9.67723179	     31.92763224	     -8.28727208	    -10.40302287	     -1.72449467	     10.98528731	     -3.06916557	      3.62745851	      2.09406744	      3.23969467	     11.12260424
      1.42883333	     -2.20278650	     -4.34285014	    -11.95539037	      0.96414291	      0.98599523	      0.29575220	    -13.76465182	      7.78852998	     12.38299550	    -17.07891819	     17.37459317	      2.29941441	      9.75409709	     31.84776939	     -8.16777021	     -9.98914510	     -2.19267894	     11.17227287	     -3.69229193	      3.64117001	      2.25393556	      3.08604113	     11.24735079
      1.43300000	     -2.25056178	     -4.20286592	    -12.04609227	      0.97007567	      0.98530643	      0.29552650	    -13.92837805	      7.55304149	     12.38177563	    -17.26961248	     17.19873106	      2.32368422	      9.82178918	     31.78283897	     -8.02921895	     -9.62409368	     -2.68499052	     11.38640919	     -4.15085037	      3.65812956	      2.43200539	      2.92076831	     11.35794537
      1.43716667	     -2.30292086	     -4.05709498	    -12.18208296	      0.97601635	      0.98463489	      0.29532527	    -14.05751279	      7.30041175	     12.39891436	    -17.52106653	     17.00528015	      2.37473925	      9.95106248	     31.68086739	     -7.89615863	     -9.23920039	     -3.10942076	     11.47705670	     -4.82280992	      3.68366018	      2.60337506	      2.77170868	     11.50166598
      1.44133333	     -2.35199822	     -3.90728255	    -12.27614358	      0.98203172	      0.98395323	      0.29506450	    -14.19705298	      7.04890760	     12.37072964	    -17.75333509	     16.79727263	      2.43354459	     10.10043021	     31.58628479	     -7.73636993	     -8.89595593	     -3.53533721	     11.57080947	     -5.33930364	      3.72112622	      2.78931044	      2.59749595	     11.61482333
      1.44550000	     -2.40553661	     -3.74520020	    -12.38471030	      0.98810104	      0.98328404	      0.29480860	    -14.31837117	      6.78015023	     12.34498786	    -18.00857743	     16.57551754	      2.50366117	     10.28574680	     31.48106853	     -7.56882214	     -8.60051136	     -3.93577915	     11.61744336	     -5.85496554	      3.76985964	      2.98301200	      2.42597281	     11.73182072
      1.44966667	     -2.45479302	     -3.58354059	    -12.48517216	      0.99420390	      0.98262431	      0.29452080	    -14.43276698	      6.51099473	     12.30139396	    -18.28433894	     16.33604970	      2.57986542	     10.52137304	     31.36442165	     -7.39294803	     -8.33249268	     -4.30406630	     11.60699278	     -6.34891470	      3.83972839	      3.17887417	      2.25705640	     11.83467030
      1.45383333	     -2.49689014	     -3.40835739	    -12.57268667	      1.00037500	      0.98197773	      0.29420686	    -14.55148575	      6.22617851	     12.23933327	    -18.56053589	     16.08183892	      2.67517804	     10.82491869	     31.23329870	     -7.19268474	     -8.09102549	     -4.64134808	     11.53820671	     -6.84175349	      3.94040598	      3.37759625	      2.06749360	     11.94010555
      1.45800000	     -2.56244816	     -3.22474932	    -12.65345598	      1.00656895	      0.98130664	      0.29387606	    -14.62478022	      5.93991537	     12.15101177	    -18.87091503	     15.80753163	      2.75877742	     11.17769422	     31.13142450	     -6.98669133	     -7.91226247	     -4.96612991	     11.39873449	     -7.24748749	      4.07702701	      3.60701569	      1.87562723	     12.03204952
      1.46216667	     -2.61271219	     -3.03710950	    -12.71998969	      1.01279998	      0.98066623	      0.29351238	    -14.70754394	      5.64827918	     12.04479001	    -19.18916772	     15.51275166	      2.85459333	     11.58408967	     31.01359880	     -6.76492165	     -7.75689723	     -5.26785786	     11.19583032	     -7.64024797	      4.24929542	      3.82394472	      1.66903934	     12.10965538
      1.46633333	     -2.66349401	     -2.83947370	    -12.77725723	      1.01905346	      0.98002954	      0.29312161	    -14.77535912	      5.34668085	     11.91789036	    -19.52775421	     15.19137170	      2.94699925	     12.01951258	     30.89714787	     -6.52911351	     -7.64183653	     -5.54366111	     10.93123769	     -8.02392273	      4.45507547	      4.04952371	      1.45533978	     12.17836734
      1.47050000	     -2.72654149	     -2.64164115	    -12.79668360	      1.02539722	      0.97939640	      0.29268129	    -14.83610832	      5.05459432	     11.75629091	    -19.85056721	     14.80427557	      3.10096291	     12.78117740	     30.79446936	     -6.27449221	     -7.48830679	     -5.79856134	     10.58652713	     -8.41583486	      4.83710396	      4.30136800	      1.22883805	     12.22618925
      1.47466667	     -2.77168189	     -2.42338726	    -12.83330831	      1.03173213	      0.97880407	      0.29227831	    -14.89347215	      4.74250924	     11.62697990	    -20.20859789	     14.41099114	      3.08365337	     12.85600136	     30.70765530	     -6.02443361	     -7.57872871	     -6.11103902	     10.28645841	     -8.44417458	      4.87575639	      4.53629480	      0.98277561	     12.22483411
      1.47883333	     -2.84139243	     -2.19728987	    -12.83094513	      1.03808124	      0.97817815	      0.29178001	    -14.89913415	      4.42851064	     11.40595399	    -20.60112231	     13.95845759	      3.16708065	     16.04201781	     30.63481780	     -5.73768019	     -7.50898851	     -6.34898266	      9.74290557	     -8.82838755	      6.56904732	      4.78203114	      0.73086395	     12.25135746
      1.48300000	     -2.88723069	     -1.96269741	    -12.82442795	      1.04448641	      0.97762517	      0.29130538	    -14.93314474	      4.10814892	     11.21421223	    -20.98885488	     13.50303353	      3.20720261	     16.05224206	     30.56004601	     -5.45165618	     -7.58874571	     -6.63228240	      9.30649241	     -8.87528454	      6.57173615	      5.04298622	      0.46116412	     12.25681179
